<svg xmlns="http://www.w3.org/2000/svg" viewBox="0 0 1200 1100" width="1200" height="1100"><g transform="translate(834.0 344.0) rotate(0.0 113.0 168.0) scale(0.9882027827090748 0.9888693338670089)"><svg width="228.698" height="339.782" viewBox="0 0 228.698 339.782"><linearGradient id="a" gradientTransform="matrix(1 0 0 -1 0 342)" gradientUnits="userSpaceOnUse" x1="6.861" x2="281.924" y1="496.131" y2="-333.045"><stop offset=".289" stop-color="#6da2ef"/><stop offset=".577" stop-color="#352acf"/></linearGradient><path d="M0 0h228.698v43.505l-1.237 1.263v294.014H43.582l-.182 1H0z" fill="url(#a)"/><path d="M227.698 338.782v-55.797l1.002-.069V114.874l-1.002-.316V70.221l1.002-.568V43.456C121.777 100.422 47.926 211.28 43.4 339.782l.221-1h16.484l.168 1h68.864l.284-1z" fill="#352acf"/><g fill="#65c400"><path d="M228.7 339.782v-56.866a25.001 25.001 0 0 0-15.173-.246c-14.5 4.923-14.578 25.043-27.617 26.726-9.287 1.2-12.756-8.556-23.163-7.127-7.879 1.082-12.856 7.63-20.045 17.372-5.626 7.624-10.553 14.3-13.545 20.141zm0-270.163c-9.523 6.287-16.9 14.328-17.4 22.4-.376 6.13 3.237 11.958 3.563 12.472a26.39 26.39 0 0 0 13.837 10.424zM43.4 339.782h16.873a58.924 58.924 0 0 0 9.82-31.276c.059-5.544-.814-11.434 2.673-13.809 4.008-2.731 8.766 2.6 16.035.891 8.4-1.975 12.842-11.629 14.255-14.7 4.1-8.909 1.023-12.318 3.563-23.163 2.179-9.3 6.441-15.333 12.918-24.5 9.789-13.854 14.79-15.562 20.936-23.609 19.527-25.566.2-49.12 18.708-69.934 10.679-12.009 22.71-10.464 25.836-22.272 2.659-10.042-5.09-14.761-6.236-27.617a32.41 32.41 0 0 1 2.663-16.055C100.526 135.258 47.224 231.223 43.4 339.782z"/></g></svg></g><g transform="translate(391.0 57.0) rotate(0.0 245.5 399.0) scale(0.9756427120880344 0.9774213224828951)"><svg width="503.258" height="816.434" viewBox="0 0 503.258 816.434"><linearGradient id="e" gradientUnits="userSpaceOnUse" x1="249.412" x2="209.412" y1="-71.552" y2="823.114"><stop offset=".289" stop-color="#030a24"/><stop offset=".577" stop-color="#232276"/></linearGradient><linearGradient id="b" gradientUnits="userSpaceOnUse" x1="346.148" x2="278.903" y1="325.685" y2="305.039"><stop offset="0" stop-color="#352acf"/><stop offset="1" stop-color="#232276"/></linearGradient><clipPath id="f"><path d="M403.04 353.708h52.236v143.5h-42.427a9.809 9.809 0 0 1-9.809-9.809V353.708z" transform="matrix(.9248384 -.38036026 .38036026 .9248384 -129.573 195.217)"/></clipPath><linearGradient xmlns:xlink="http://www.w3.org/1999/xlink" id="g" x1="421.429" x2="409.229" xlink:href="#b" y1="374.136" y2="390.912"/><linearGradient id="c" gradientUnits="userSpaceOnUse" x1="342.885" x2="425.721" y1="697.28" y2="697.28"><stop offset=".561" stop-color="#352acf"/><stop offset="1" stop-color="#232276"/></linearGradient><linearGradient xmlns:xlink="http://www.w3.org/1999/xlink" id="h" x1="321.354" x2="357.888" xlink:href="#c" y1="706.325" y2="706.325"/><linearGradient xmlns:xlink="http://www.w3.org/1999/xlink" id="i" x1="131.956" x2="82.623" xlink:href="#b" y1="463.226" y2="788.559"/><linearGradient xmlns:xlink="http://www.w3.org/1999/xlink" id="j" x1="228.734" x2="228.734" xlink:href="#b" y1="286.216" y2="88.776"/><linearGradient xmlns:xlink="http://www.w3.org/1999/xlink" id="k" x1="176.789" x2="144.416" xlink:href="#b" y1="-30.618" y2="103.763"/><linearGradient id="d" gradientUnits="userSpaceOnUse" x1="-134.955" x2="201.045" y1="18.086" y2="159.419"><stop offset=".44" stop-color="#c8ff00"/><stop offset=".577" stop-color="#65c400"/></linearGradient><linearGradient id="l" gradientUnits="userSpaceOnUse" x1="-251.931" x2="637.402" y1="-210.836" y2="327.83"><stop offset=".289" stop-color="#6da2ef"/><stop offset=".577" stop-color="#fff"/></linearGradient><linearGradient xmlns:xlink="http://www.w3.org/1999/xlink" id="m" x1="227.807" x2="243.807" xlink:href="#d" y1="-100.532" y2="187.468"/><clipPath id="n"><path d="M350.703 96.532h104.743v198.273H350.703z"/></clipPath><linearGradient xmlns:xlink="http://www.w3.org/1999/xlink" id="o" x1="466.619" x2="411.952" xlink:href="#b" y1="141.471" y2="276.138"/><path d="M.5 0h454.947v815.907H.5z" fill="url(#e)"/><path d="m378.999 586.116-48.144-128.253-28.395-59.349L.5 642.934v172.973h332.839l-1.355-20.074 25.904-18.09 15.682-9.858 8.745-125.025z" fill="#352acf"/><path d="m286.263 215.169 49.022 30.386a13.244 13.244 0 0 1 6.256 10.7c.8 18.927 1.057 38.913.565 59.859a909.454 909.454 0 0 1-7.409 96.414l-144.708-42.657z" fill="url(#b)"/><path d="M292.173 218.832 229.56 314.5c21.2 7.321 44.2 21.867 65.406 29.188 5.719-13.552 18.863-48.012 23.923-64.845a451.57 451.57 0 0 0 9.541-37.536z" fill="#c8ff00"/><path d="m402.293 633.471 41.11-81.953 1.787.896-41.11 81.954z" fill="#352acf"/><path d="m365.095 374.227 60.925-25.056 76.743 186.598-51.855 21.326a9.809 9.809 0 0 1-12.803-5.34l-73.012-177.527h.002z" fill="#352acf"/><path d="m377.71 369.04 48.31-19.87 54.582 132.715-39.238 16.138a9.809 9.809 0 0 1-12.803-5.341l-50.85-123.643z" fill="#6da2ef"/><path d="M437.634 499.262a10.334 10.334 0 0 1-9.534-6.393l-51.041-124.105 49.235-20.25.19.462 54.773 133.177-39.7 16.328a10.3 10.3 0 0 1-3.923.781zm-59.27-129.954 50.662 123.18a9.309 9.309 0 0 0 12.149 5.068l38.777-15.948-54.2-131.789z" fill="#030a24"/><g clip-path="url(#f)"><path d="m417.068 444.114 9.54-3.924-11.388-27.687-9.539 3.923 2.775 6.748z" fill="#c8ff03"/><path d="M408.1 463.154h-.014a.5.5 0 0 1-.449-.309L385.8 409.751a.5.5 0 0 1 .63-.662l19.238 6.8 9.362-3.851a.5.5 0 0 1 .653.272L427.07 440a.5.5 0 0 1-.272.653l-9.363 3.851-8.885 18.368a.5.5 0 0 1-.45.282zm-20.949-52.749 20.986 51.025 8.481-17.534a.505.505 0 0 1 .26-.245l9.077-3.733-11.007-26.763-9.076 3.734a.507.507 0 0 1-.358.009z" fill="#030a24"/><path d="m441.247 401.799-9.539 3.923 11.387 27.687 9.54-3.923-2.775-6.747z" fill="#c8ff03"/><path d="M472.051 436.852a.513.513 0 0 1-.167-.028l-19.236-6.8-9.362 3.851a.5.5 0 0 1-.654-.273l-11.387-27.687a.5.5 0 0 1 .272-.653l9.364-3.85 8.884-18.368a.556.556 0 0 1 .465-.282.5.5 0 0 1 .448.309l21.836 53.094a.5.5 0 0 1-.463.69zm-19.417-7.866a.527.527 0 0 1 .167.028l18.363 6.494-20.986-51.025-8.48 17.533a.507.507 0 0 1-.26.246l-9.078 3.732 11.008 26.763 9.076-3.734a.526.526 0 0 1 .19-.037zM423.4 461.292a.5.5 0 0 1-.19-.963l36.464-15a.5.5 0 1 1 .381.926l-36.465 15a.51.51 0 0 1-.19.037z" fill="#030a24"/><path d="m425.272 465.344 36.465-14.998 1.906 4.632-36.465 14.999z" fill="#fff"/></g><path d="m314.459 439.409 49.921-103.746a11.169 11.169 0 0 1 11.639-6.215L476 343.687v20.3l-55.277-1.836a11.167 11.167 0 0 0-11.368 9.213l-32.007 180.609-27.74-8.192z" fill="url(#g)"/><path d="M467.03 342.409v11.165L416.7 351.9a16.882 16.882 0 0 0-17.184 13.927l-31.145 175.73-21.671-6.4 2.9 8.623 27.74 8.192 32.009-180.608a11.167 11.167 0 0 1 11.368-9.213L476 363.988v-20.3z" fill="#fff"/><path d="M377.348 552.473a.533.533 0 0 1-.088-.008.5.5 0 0 1-.4-.579l32.01-180.608a11.762 11.762 0 0 1 11.876-9.626l55.277 1.836a.5.5 0 0 1-.016 1h-.017l-55.277-1.836a10.777 10.777 0 0 0-10.859 8.8L377.84 552.059a.5.5 0 0 1-.492.414z" fill="#030a24"/><path d="M425.721 777.743h-67.833l-15-160.926h36.209a32.19 32.19 0 0 1 32 28.651z" fill="url(#c)"/><path d="m331.984 795.833 25.904-18.09-15.003-160.926-21.531 21.507z" fill="url(#h)"/><path d="M399.817 796.333h-67.833a.5.5 0 0 1-.286-.91l25.9-18.09a.5.5 0 0 1 .286-.09h67.836a.5.5 0 0 1 .287.91l-25.9 18.09a.5.5 0 0 1-.29.09zm-66.244-1h66.087l24.472-17.09h-66.086z" fill="#352acf"/><path d="m368.14 585.695 7.954-.975 15.16 123.63-7.953.974z" fill="#fff"/><path d="M383.305 709.822a.5.5 0 0 1-.5-.439l-11.344-92.506a.5.5 0 0 1 .436-.557.494.494 0 0 1 .557.436l11.283 92.008 7.458-.915a.5.5 0 1 1 .121.993l-7.954.976a.408.408 0 0 1-.057.004z" fill="#030a24"/><circle cx="372.121" cy="580.348" fill="#fff" r="14.752"/><path d="m399.069 796.191.996-.091 1.837 20.111-.996.091z" fill="#352acf"/><path d="M377.38 737.489h-23.245l.478 5.12h23.343zm-8.58 11.769h-13.568l.478 5.121h13.666z" fill="#c8ff00"/><g fill="#030a24"><path d="m357.39 777.79-15.054-161.474h29.06l-2.628-21.434.992-.121 2.767 22.555h-29.094l14.953 160.38z"/><path d="M333.338 816.407a.5.5 0 0 1-.5-.467l-11.984-177.583a.5.5 0 0 1 .146-.386l21.531-21.508a.5.5 0 0 1 .851.306l15.158 162.575a.5.5 0 1 1-1 .093l-15.055-161.515-20.617 20.6 11.97 177.357a.5.5 0 0 1-.466.532z"/><path d="m401.166 779.462-4.753-43.946a4.362 4.362 0 0 0-4.356-3.894h-.109l-38.309.917-.023-1 38.308-.917h.134a5.358 5.358 0 0 1 5.349 4.785l4.753 43.947z"/></g><path d="M192.916 647.058q-21.356-8.45-43.048-16.225c-9.781-3.5-57.1-19.178-71.046-23.356Q40.116 595.879.5 586.431v117.794a1297.592 1297.592 0 0 1 151.781 49.749 27.347 27.347 0 0 0 35.2-14.685l22.26-51.9a30.463 30.463 0 0 0-16.825-40.331z" fill="url(#i)"/><path d="M162.442 756.437a27.944 27.944 0 0 1-10.346-2A1302.069 1302.069 0 0 0 .374 704.709a.5.5 0 0 1-.358-.61.494.494 0 0 1 .61-.357 1302.565 1302.565 0 0 1 151.839 49.768 26.689 26.689 0 0 0 34.551-14.418l22.261-51.9a29.961 29.961 0 0 0-16.545-39.666.5.5 0 1 1 .367-.929 30.963 30.963 0 0 1 17.1 40.99l-22.261 51.9a27.72 27.72 0 0 1-25.496 16.95z"/><path d="M94.122 732.928a.474.474 0 0 1-.165-.029.5.5 0 0 1-.307-.636l9.99-28.566a.5.5 0 1 1 .944.33l-9.991 28.566a.5.5 0 0 1-.471.335zM13.4 711.252a.5.5 0 0 1-.48-.641l9.488-32.374a.494.494 0 0 1 .62-.339.5.5 0 0 1 .339.62l-9.488 32.374a.5.5 0 0 1-.479.36z"/><path d="M208.874 815.907a1248.566 1248.566 0 0 0-117.784-49.02l-7.883 22.059q34.869 12.463 68.735 26.961z" fill="#6da2ef"/><path d="m90.004 771.45-17.53 44.457h15.264l17.53-44.457" fill="#6da2ef"/><path d="M.5 704.217v34.16a1246.192 1246.192 0 0 1 209.474 78.057l7.611-34.411A1297.607 1297.607 0 0 0 .5 704.217z"/><path d="M160.338 667.986A1381.68 1381.68 0 0 0 .5 618.557v53.8a1308.826 1308.826 0 0 1 140.635 45.084 18.714 18.714 0 0 0 24.112-10.493l5.811-14.534a18.689 18.689 0 0 0-10.72-24.428z" fill="#352acf"/><path d="M147.808 719.181a19.09 19.09 0 0 1-6.852-1.272A1313.372 1313.372 0 0 0 .374 672.843a.5.5 0 1 1 .252-.969 1315 1315 0 0 1 140.689 45.1 18.3 18.3 0 0 0 23.468-10.211.5.5 0 1 1 .928.371 19.293 19.293 0 0 1-17.903 12.047z"/><path d="M455.447 317.677V0H2.021l140.942 52.037c81.921 17.169 164.016 45.5 240.263 95.089l-31.2 54.3 12.171 46.44a700.958 700.958 0 0 1 91.25 69.811z" fill="url(#j)"/><path d="m290.008 110.953 2.182-8.535c.956.395 1.915.782 2.869 1.181q4.881 2.038 9.727 4.141c1.431.62 2.853 1.256 4.279 1.885q3.06 1.349 6.11 2.718 2.343 1.057 4.677 2.132 2.9 1.331 5.781 2.684c1.521.713 3.044 1.425 4.56 2.148q3.312 1.579 6.6 3.195c1.155.564 2.316 1.118 3.468 1.687q21.878 10.818 42.966 22.939l5.166-8.992q-23.473-13.518-47.929-25.465A103.942 103.942 0 0 0 288.624 0H.5v13.552l24.632 37.867a781.848 781.848 0 0 1 264.779 59.492z" fill="#6da2ef"/><path d="M267.381 20.827Q232.553 8.867 196.363 0H.5v110.347a685.12 685.12 0 0 1 283.72 61.081l24.555-54.223c17.225-38.048-1.891-82.814-41.394-96.378z" fill="url(#k)"/><path d="m129.2 122.379-10.145-32.73A723.037 723.037 0 0 0 .5 79.906v30.441a691.239 691.239 0 0 1 128.7 12.032z" fill="url(#d)"/><path d="M92.69 116.49q3.843.516 7.671 1.072l-9.942-32.076q-3.805-.476-7.622-.913z" fill="#030a24"/><path d="M266.71 20.6C243.636 12.849 220.185 5.842 196.284 0H28.92l16.863 54.4a763.64 763.64 0 0 1 105.353 13.537l5.839-7.872a748.438 748.438 0 0 1 154.354 50.553c12.636-39.201-6.464-77.202-44.619-90.018z" fill="url(#l)"/><circle cx="238.441" cy="90.882" fill="#fff" r="23.138"/><path d="M238.441 49.133a41.749 41.749 0 1 0 41.749 41.749 41.749 41.749 0 0 0-41.749-41.749zm0 61.214a19.465 19.465 0 1 1 19.465-19.465 19.464 19.464 0 0 1-19.465 19.465z" fill="url(#m)"/><path d="M249.262 107.061a19.356 19.356 0 0 1-8.291 3.1l2.9 22.1a41.5 41.5 0 0 0 17.78-6.682z"/><path d="M243.7 109.608a19.341 19.341 0 0 1-19.171-5.128l-15.939 15.576a41.715 41.715 0 0 0 41.133 11.02z" fill="#c8ff00"/><g clip-path="url(#n)"><path d="M399.453 245.157a.99.99 0 0 1-.581-.187l-1.066-.767a684.435 684.435 0 0 0-27.27-18.617 1 1 0 1 1 1.088-1.678 689.6 689.6 0 0 1 27.351 18.671l1.061.766a1 1 0 0 1-.583 1.812zm-4.985 6.919a1 1 0 0 1-.584-.189l-1.4-1.008c-3.414-2.45-6.9-4.9-10.352-7.283a1 1 0 0 1 1.135-1.647 717.192 717.192 0 0 1 10.383 7.3l1.4 1.011a1 1 0 0 1-.586 1.811z" fill="#fff"/><path d="m458.944 196.159 9.2-12.12a784.1 784.1 0 0 0-76.444-51.325l-8.636 14.753a781.687 781.687 0 0 1 75.88 48.692z" fill="#65c400"/><path d="m477.243 177.58 10.168-11.268q-28.869-22.287-59.774-41.935l-8.107 12.784q29.793 18.933 57.713 40.419z" fill="#c8ff00"/><path d="m467.577 284.45 35.681-40.784c-.163-.21-.337-.421-.5-.632a751.511 751.511 0 0 0-95.858-73.69l-29.46 45.569a705.591 705.591 0 0 1 90.137 69.537z" fill="#fff"/><path d="M468.266 283.663c-45.571-36.739 5.075-65.916-19.99-82.26-17.875-11.655-44.7 29.724-70.305 12.685l-.534.825 90.14 69.537z" fill="url(#o)"/><path d="M467.952 284.053c-26.65-21.486-20.7-40.47-15.925-55.724 3.471-11.081 6.212-19.833-4.024-26.507-7.857-5.122-17.835.524-28.4 6.5-12.971 7.339-27.674 15.658-41.911 6.182l.555-.832c13.728 9.136 28.145.977 40.864-6.221 10.836-6.131 21.07-11.919 29.437-6.467 10.871 7.088 7.887 16.614 4.432 27.644-4.687 14.965-10.52 33.589 15.6 54.645z" fill="#ff0068"/></g></svg></g><g transform="translate(108.0 165.0) rotate(0.0 141.0 159.0) scale(0.9735484806429563 0.9773158236037139)"><svg width="289.662" height="325.381" viewBox="0 0 289.662 325.381"><linearGradient id="p" gradientUnits="userSpaceOnUse" x1="147.211" x2="140.544" y1="-156.686" y2="737.98"><stop offset=".289" stop-color="#030a24"/><stop offset=".577" stop-color="#232276"/></linearGradient><path d="M0 0h289.662v325.381H0z" fill="url(#p)"/></svg></g><g transform="translate(837.0 434.0) rotate(0.0 148.0 189.5) scale(0.9740687113334211 0.974841877560889)"><svg width="303.88" height="388.781" viewBox="0 0 303.88 388.781"><linearGradient id="q" gradientUnits="userSpaceOnUse" x1="50.507" x2="127.996" y1="14.741" y2="14.741"><stop offset="0" stop-color="#352acf"/><stop offset="1" stop-color="#232276"/></linearGradient><path d="m132.81 138.941.08 7.613a11.291 11.291 0 0 0 4.134 8.615L169 181.377a13.163 13.163 0 0 0 10.652 2.779l49.149-8.753-13.093-16.818z"/><path d="m112.546 100.608.052 15.4a15.745 15.745 0 0 0 5.771 12.131l55.577 45.5v-24.381z" fill="#6da2ef"/><path d="m186.192 173.064-9.277 1.364a3.935 3.935 0 0 1-4.507-3.893v-22.78l19.669 1.391v17.106a6.885 6.885 0 0 1-5.885 6.812z" fill="#352acf"/><path d="m173.408 148.828 17.669 1.25v16.174a5.919 5.919 0 0 1-5.03 5.823l-9.278 1.363a2.891 2.891 0 0 1-.434.032 2.935 2.935 0 0 1-2.927-2.935zm-1-1.073v22.78a3.935 3.935 0 0 0 3.927 3.935 4.1 4.1 0 0 0 .58-.042l9.277-1.364a6.885 6.885 0 0 0 5.885-6.812v-17.106z" fill="#6da2ef"/><path d="M179.669 167.439a2.217 2.217 0 0 1-2.216-2.217v-16.917l9.579.679v14.37a3.523 3.523 0 0 1-3 3.467l-4.046.594a2.181 2.181 0 0 1-.317.024zm-1.216-18.06v15.843a1.215 1.215 0 0 0 1.394 1.2l4.046-.595a2.517 2.517 0 0 0 2.139-2.476v-13.436z" fill="#6da2ef"/><path d="m206.375 169.768 13.239-1.945v-18.677h-21.126v13.809a6.886 6.886 0 0 0 7.887 6.813z" fill="#352acf"/><path d="M218.614 150.146v16.813l-12.384 1.82a6.059 6.059 0 0 1-.869.063 5.886 5.886 0 0 1-5.873-5.887v-12.809zm1-1h-21.126v13.809a6.888 6.888 0 0 0 6.873 6.887 7 7 0 0 0 1.014-.074l13.239-1.945z" fill="#6da2ef"/><path d="M190.119 68.545 140.254 71.5l-15.009 8.483 17.515 12.992 52.581 33.96 41.092 19.3 7.094-3.443 9.321-26.1a6.85 6.85 0 0 0-1.848-7.381 328.979 328.979 0 0 0-30.57-24.535 329.056 329.056 0 0 0-19.257-12.659 7.131 7.131 0 0 0-3.5-1.03l-2.37-.07z" fill="#fff"/><path d="M189.21 165.318 66.55 65.208a36.4 36.4 0 0 1-5.229-5.229 150.888 150.888 0 0 1-15.93-24.037 155.898 155.898 0 0 1-4.736-9.719c-1.644-3.68-2.458-10.044-2.837-14.274a10.044 10.044 0 0 1 2.335-7.382l1.474-1.742 92.707 81.323 75.248 56.087z" fill="#fff"/><path d="m241.716 160.128-48.615 6.5a4.671 4.671 0 0 1-5.289-4.63v-38.78l23.565 4.013 34.39 28.21a4.67 4.67 0 0 1-4.051 4.687z" fill="#6da2ef"/><path d="M207.02 119.129c-14.342-12.286-30.051-24.228-46.463-32.861-3.179-1.812-8.22-.082-11.712 4.179-3.519 4.3-4.213 9.631-1.744 12.373 11.69 14.4 26.485 27.452 41.35 39.1l11.815 9.683 18.646-22.754z" fill="#c8ff00"/><path d="m199.946 151.993-11.814-9.683c-17.778-13.93-31.329-26.745-41.421-39.172-2.653-2.947-1.91-8.546 1.745-13.006 3.609-4.4 8.918-6.249 12.348-4.3l-.247.434.354.352-.271.272-.332-.188c-3.007-1.715-7.773.029-11.079 4.062-3.29 4.014-4.062 9.162-1.757 11.721 10.058 12.387 23.558 25.152 41.286 39.042l11.823 9.689z"/><path d="M188.934 142.321c-4.24-3.475-3.5-11.386 1.645-17.669s12.761-8.56 17-5.085l-3.031-2.484c-4.241-3.475-11.853-1.2-17 5.085s-5.886 14.194-1.645 17.669zm29.976-13.469c-4.24-3.475-11.921-1.114-17.156 5.273s-6.04 14.383-1.8 17.858 11.922 1.115 17.156-5.273 6.04-14.383 1.8-17.858z"/><path d="M217.006 131.176c2.853 2.337 1.889 8.619-2.064 13.441s-9.921 7-12.774 4.665-1.888-8.618 2.065-13.441 9.921-7 12.773-4.665" fill="#ff4a8b"/><path d="M241.6 105.642c-13.508-11.573-28.3-22.82-43.763-30.952-2.994-1.707-7.743-.077-11.032 3.936-3.315 4.045-3.968 9.071-1.642 11.654 11.01 13.559 24.946 25.857 38.947 36.829l11.129 9.119L252.8 114.8z" fill="#fff"/><g fill="#6da2ef"><path d="m234.92 136.619-11.129-9.119c-16.751-13.127-29.518-25.2-39.019-36.9-2.507-2.784-1.807-8.075 1.645-12.287 3.41-4.159 8.424-5.9 11.666-4.054l.387.2-.461.887-.4-.21c-2.842-1.617-7.311.023-10.414 3.811-3.09 3.769-3.818 8.6-1.658 11 9.47 11.661 22.184 23.682 38.885 36.77l11.138 9.127z"/><path d="M224.565 127.486c-3.994-3.273-3.3-10.724 1.55-16.642s12.019-8.063 16.013-4.789l-2.855-2.34c-3.994-3.273-11.163-1.129-16.013 4.789s-5.544 13.369-1.55 16.643zm28.057-12.832c-4.093-3.354-11.41-1.192-16.344 4.829s-5.617 13.621-1.524 16.975 11.41 1.192 16.344-4.829 5.617-13.621 1.524-16.975z"/></g><path d="M250.447 116.762c2.852 2.337 1.888 8.619-2.064 13.441s-9.922 7-12.775 4.665-1.888-8.618 2.065-13.441 9.921-7 12.774-4.665" fill="#ff4a8b"/><path d="m38.116 6.367.664-.748 35.902 31.866-.664.748z" fill="#6da2ef"/><path d="M232.755 189.4c11.535 16.64 31.768 29.891 29.232 50.919-2.652 21.991-37.165 23.443-41.359 48.7-1.839 11.068 5.813 10.709 3 19.27-2.731 8.308-12.979 9.682-19.135 16.3-19.026 20.451-37.545 30.85-71.681 32.543-17.722.878-23.729-8.649-46.431-9.009-47.99-.762-60.919 30.63-86.33 28.812-.17 3.875.171 7.854 0 11.729 31.908 2.147 32.637-25.406 79.843-23.965 37.44 1.143 70.29 18.639 95.127 4.317 6.572-3.79 4.146-4 15.043-12.715 15.387-12.3 65.641-17.1 75.876-48.4 3.4-10.394-6.973-12.063-3.355-23.454 3.792-11.941 42.288-25.935 26-64.353-11.713-12.78-20.807-23.414-32.519-36.194l-31.74-50.729-17.307 13.478" fill="#c8ff00"/><path d="M270.2 189.026c3.748-5.7 7.753 9.833 17.964 10.589-5.3-5.091-2.392-10.234-4.4-16.608-3.612-11.438-12.97-15.764-9.077-25.133 1.328-3.194 9.524 9.705 9.524 9.705.79-2.764-.131-6.942-2.126-11.739-1.583-3.806-8.339-9.331-10.956-13.519-8.1-12.955-15.239-24.675-22.254-26.338l-2.437 3-11.394 15.307q1.063 1.752 2.131 3.687 1.014 1.845 1.884 3.6a45.972 45.972 0 0 0-12.428-7.629 64.92 64.92 0 0 0-11.143-3.534c-4.035 4.835-6.552 10.429-10.588 15.263 1.172 1.488-3.45 1.98-2.732 3.6 7.2 16.268-17.523 38.31 39.386 82.089-6.794-14.752-9.744-46.316 1.974-45.989 3.582.1 6.261 8.454 8.095 12.008 11.313 21.057 23.282 24.4 29.427 27.128a67.738 67.738 0 0 1 22.83 17.525c-3.126-5.629-6.909-20.538-11.3-28.057-7.802-13.351-26.734-18.337-22.38-24.955z" fill="#ff4a8b"/><path d="M261.394 177.685s-9.123-6.87-13.839-13.527c-4.945-6.981-5.563-14.04-1.888-15.644 2.778-1.213 7.858-.113 12.6 9.729 4.052 8.414 3.127 19.442 3.127 19.442z" fill="#c8ff00"/><path d="M195.3 71.017c-8.336-.842-18.591-.208-31.822 2a124.284 124.284 0 0 0-22.094 5.825 16.721 16.721 0 0 1-16.784-3.135l-54-47.471 1.871-7.878 69.924 7.3z" fill="#6da2ef"/><path d="M140.342 71.287a12.222 12.222 0 0 1-8.092-2.994L98.871 38.952l.66-.752 33.379 29.341a11.525 11.525 0 0 0 11.466 2.048c20.443-7.227 35.961-6.527 41.061-6.294l.7.031-.039 1-.7-.032c-5.054-.227-20.424-.925-40.683 6.239a13.125 13.125 0 0 1-4.373.754z" fill="#fff"/><path d="M158.819 56.854a5.063 5.063 0 0 1-3.352-1.279l-5.157-4.588a1.72 1.72 0 0 1 .8-2.969c1.554-.32 3.118-.612 4.653-.868 3.257-.545 6.386-1 9.3-1.356l.122.993c-2.9.352-6.012.806-9.256 1.349a125.68 125.68 0 0 0-4.615.86.716.716 0 0 0-.556.525.7.7 0 0 0 .216.718l5.157 4.588a4.023 4.023 0 0 0 3.461.949c1.432-.292 2.889-.563 4.331-.8 3.709-.62 7.247-1.124 10.516-1.5l.114.994a206.2 206.2 0 0 0-10.466 1.491c-1.429.239-2.874.507-4.3.8a4.828 4.828 0 0 1-.968.093z" fill="#fff"/><path d="M41.627 2.825 77.268 34.09l19.614 6.2a29.426 29.426 0 0 0 16.367.447 162.189 162.189 0 0 1 38.588-5.337l-30.255-24.792a30.839 30.839 0 0 0-17.541-6.921L47.761.015A7.029 7.029 0 0 0 42.1 2.3z"/><path d="m50.507 10.615 11.536 10.12A147.5 147.5 0 0 1 128 15.864l-6.414-5.256c-.026-.021-.054-.039-.08-.061a344.487 344.487 0 0 0-70.995.068z" fill="url(#q)"/><ellipse cx="82.526" cy="40.059" fill="#6da2ef" rx="14.709" ry="9.927" transform="matrix(.63383997 -.77346422 .77346422 .63383997 -.767 78.498)"/><ellipse cx="81.622" cy="39.318" fill="#fff" rx="12.533" ry="7.858" transform="matrix(.63383997 -.77346422 .77346422 .63383997 -.525 77.528)"/></svg></g><g transform="translate(208.0 250.0) rotate(0.0 287.5 414.0) scale(0.9611205830241032 0.961337513061651)"><svg width="598.26" height="861.3" viewBox="0 0 598.26 861.3"><linearGradient id="u" gradientUnits="userSpaceOnUse" x1="540.945" x2="473.701" y1="124.61" y2="103.964"><stop offset="0" stop-color="#352acf"/><stop offset="1" stop-color="#232276"/></linearGradient><linearGradient id="s" gradientUnits="userSpaceOnUse" x1="496.84" x2="571.71" y1="841.202" y2="-268.901"><stop offset=".289" stop-color="#6da2ef"/><stop offset=".577" stop-color="#fff"/></linearGradient><linearGradient id="r" gradientUnits="userSpaceOnUse" x1="171.113" x2="269.758" y1="214.994" y2="806.868"><stop offset=".289" stop-color="#6da2ef"/><stop offset=".577" stop-color="#352acf"/></linearGradient><linearGradient xmlns:xlink="http://www.w3.org/1999/xlink" id="v" x1="414.105" x2="541.98" xlink:href="#r" y1="420.512" y2="1074.453"/><linearGradient xmlns:xlink="http://www.w3.org/1999/xlink" id="w" x1="275.914" x2="374.56" xlink:href="#r" y1="197.527" y2="789.401"/><linearGradient xmlns:xlink="http://www.w3.org/1999/xlink" id="x" x1="347.259" x2="416.593" xlink:href="#s" y1="792.889" y2="-235.111"/><linearGradient xmlns:xlink="http://www.w3.org/1999/xlink" id="y" x1="456.545" x2="525.878" xlink:href="#s" y1="800.259" y2="-227.741"/><linearGradient xmlns:xlink="http://www.w3.org/1999/xlink" id="z" x1="321.66" x2="390.993" xlink:href="#s" y1="791.162" y2="-236.838"/><linearGradient xmlns:xlink="http://www.w3.org/1999/xlink" id="A" x1="298.759" x2="289.121" xlink:href="#s" y1="284.887" y2="189.926"/><linearGradient id="t" gradientUnits="userSpaceOnUse" x1="467.653" x2="407.909" y1="93.305" y2="114.022"><stop offset=".561" stop-color="#352acf"/><stop offset="1" stop-color="#232276"/></linearGradient><linearGradient xmlns:xlink="http://www.w3.org/1999/xlink" id="B" x1="543.442" x2="462.22" xlink:href="#t" y1="157.113" y2="125.33"/><path d="m481.061 14.094 49.022 30.386a13.243 13.243 0 0 1 6.255 10.7c.8 18.927 1.058 38.914.566 59.859a909.482 909.482 0 0 1-7.41 96.415L384.787 168.8z" fill="url(#u)"/><path d="m486.971 17.757-62.614 95.667c21.2 7.321 44.2 21.867 65.406 29.188 5.719-13.552 18.864-48.012 23.923-64.845a451.2 451.2 0 0 0 9.542-37.536z" fill="#c8ff00"/><path d="M275.571 141.334c-2.267-10.367 37.735-29.068 52.745-35.647 25.1-11 45.68-7.361 56.471-6.093l111.453 32.432c46.441 23.891 59.278 140.493 62.676 177.116a19.082 19.082 0 0 0-8.969-4.888c-10.9-2.369-24.127 6.157-32.563 21.5a883 883 0 0 0-23.409-86.085q-5.478-16.747-11.327-32.47" fill="#6da2ef"/><path d="m286.944 128.704-8.725 29.386 29.886 70.628 32.733 21.883 22.497-63.423-9.338-42.158-47.142-21.306z" fill="#6da2ef"/><path d="m462.086 364.647 13.871-9.594c-5.63-19.766 2.7-110.857 8.255-143.6q6.529-15.708 13.06-31.415L348.465 145.79l-33.292 138.161z" fill="#6da2ef"/><circle cx="566.919" cy="379.273" fill="#fff" r="14.752"/><path d="M517.384 325.755c8.436-15.344 21.663-23.87 32.563-21.5a19.082 19.082 0 0 1 8.969 4.888c-1.23-13.255-3.7-36.988-8.546-63.009-9.027-18.167-32.46.825-40.208 26.337-3.346 11.017-1.221 18.155-1.221 18.155q4.697 17.957 8.443 35.129z" fill="url(#s)"/><path d="M565.337 307.213c-5.079-8.994-20.874-9.393-35.279-.891S508.094 329.008 513.173 338s20.875 9.393 35.279.89 21.964-22.683 16.885-31.677zm-19.3 27.407c-10.626 6.272-21.833 6.766-25.031 1.1s2.824-15.337 13.45-21.609 21.832-6.765 25.03-1.1-2.821 15.337-13.446 21.609z" fill="#ff0068"/><path d="m581.04 347.051-16.031-6.772-5.209-26.638-.021.012a6.34 6.34 0 0 0-.286-.642c-3.2-5.662-14.4-5.168-25.03 1.1-9.3 5.488-15.07 13.581-14.226 19.312.121.819 3.885 28.932 5.2 36.217 1.669 9.244 7.205 12.931 15.663 13.481 15.477 1.006 19.25-3.415 19.25-7.566 0-3.637-7.661-5.534-20.025-7.52 5.718.919 11.036 1.619 18.594 4.919 5.05 2.463 7.788 21.6 14.48 21.781 4.927.135 4.837-5.319 4.356-8.572 1.5 2.818 4.088 6.173 7.481 4.51 1.243-.61 2.812-2.2 3.064-5.419.9.983 6.358.932 5.37-10.144 2.254 1.321 4.317.243 4.309-1.529-.079-14.941-8.366-22.904-16.939-26.53z" fill="#c8ff00"/><path d="M577.845 387.392a.5.5 0 0 1-.494-.43l-1.261-8.868a19.761 19.761 0 0 0-7.59-12.972q-.345-.266-.7-.527a70.936 70.936 0 0 0-8.288-5.338.5.5 0 0 1 .483-.877 72.316 72.316 0 0 1 8.4 5.413q.359.267.709.537a20.754 20.754 0 0 1 7.972 13.624l1.26 8.868a.5.5 0 0 1-.424.565.581.581 0 0 1-.067.005zm10.455-1.635h-.032a.5.5 0 0 1-.467-.531 47.141 47.141 0 0 0-.323-9.27c-.12-.89-.265-1.781-.433-2.649a21.38 21.38 0 0 0-3.92-8.925 36.146 36.146 0 0 0-7.369-7.279.5.5 0 1 1 .593-.8 37.162 37.162 0 0 1 7.573 7.481 22.363 22.363 0 0 1 4.105 9.339c.171.886.319 1.8.441 2.7a48.145 48.145 0 0 1 .332 9.468.5.5 0 0 1-.5.466zm5.366-10.144a.5.5 0 0 1-.5-.459 39.127 39.127 0 0 0-5.206-16.5.5.5 0 1 1 .863-.5 40.068 40.068 0 0 1 5.339 16.921.5.5 0 0 1-.457.539zm-19.839 19.599a5.559 5.559 0 0 1-2.528-.6 5.641 5.641 0 0 1-2.309-2.2l-6.49-14.261a9.115 9.115 0 0 0-4.816-4.661 51.026 51.026 0 0 0-16.336-3.8.5.5 0 0 1-.467-.531.521.521 0 0 1 .532-.467 52.085 52.085 0 0 1 16.654 3.878 10.117 10.117 0 0 1 5.343 5.171l6.469 14.217a4.622 4.622 0 0 0 1.873 1.763 4.68 4.68 0 0 0 2.555.471.5.5 0 0 1 .1.994 5.431 5.431 0 0 1-.58.026zm-53.417-60.373a.5.5 0 0 1-.5-.443c-1.141-10.052 10.26-17.605 15.74-21.235.681-.452 1.272-.843 1.74-1.173a.5.5 0 0 1 .576.816c-.473.335-1.073.733-1.763 1.191-5.314 3.519-16.371 10.844-15.3 20.288a.5.5 0 0 1-.441.553.544.544 0 0 1-.052.003z" fill="#030a24"/><path d="m415.464 197.558-.97-.238a239.373 239.373 0 0 0 4.125-20.629 238.633 238.633 0 0 0 1.916-15.979l1 .086a239.871 239.871 0 0 1-1.924 16.045 241.547 241.547 0 0 1-4.147 20.715z" fill="#352acf"/><path d="M156.776 325.755c-22.916 47.562-42.813 86.938-42.813 86.938 3.281-6.062 21.878-3.294 41.824 6.279 20.135 9.663 34.011 22.6 30.993 28.884l.554.275L276.4 306.108s-96.708-27.915-119.624 19.647z" fill="url(#r)"/><path d="M401.255 650.24c24.8 26.694 49.172 23.541 73.247 0 3.23-56.027 3.885-146.463 3.876-195.809 0-21.616-101.5-38.193-100.06-14.817 1.949 31.669 18.14 186.368 22.937 210.626z" fill="url(#v)"/><g fill="#c8ff00"><path d="M489.7 861.334c-17.879 0-40.518-13.286-53.626-27.631-20.493-22.428-23.835-31.028-23.835-61.347 0-29.352-11.852-121.064-11.971-121.987a1 1 0 0 1 1.488-1c.4.227 40.375 22.542 71.918-2.62a1 1 0 0 1 1.624.783c0 54.318 4.24 95.177 4.605 98.591a375.114 375.114 0 0 1 21.194 39.193c13.2 28.67 17.236 49.276 11.988 61.249-3.561 8.122-9.682 12.953-18.193 14.358a31.806 31.806 0 0 1-5.192.411zm-87.21-209.328c1.7 13.35 11.745 93.233 11.745 120.35 0 29.651 3.268 38.062 23.312 60 14.055 15.383 39.225 29.549 57.016 26.6 7.8-1.287 13.414-5.725 16.686-13.188 12.01-27.4-32.708-98.053-33.161-98.763a1 1 0 0 1-.152-.427c-.046-.413-4.533-41.447-4.64-97.01-28.502 21.16-62.789 6.399-70.806 2.438z"/><path d="M489.592 861.334c-17.878 0-40.517-13.286-53.626-27.631-19.3-21.125-23.3-30.418-23.782-55.24-.052-2.7.027-3.655 1.1-3.718 1.149-.041 1.227.934 1.49 3.616 1.667 16.978 7.388 25.935 22.666 42.655 14.055 15.382 39.216 29.531 57.017 26.6 7.8-1.288 13.414-5.725 16.685-13.188a23.9 23.9 0 0 0 1.69-6.215 1.019 1.019 0 0 1 1-.858 1 1 0 0 1 .979.887c.846 7.444.227 13.61-1.841 18.325-3.56 8.122-9.681 12.953-18.192 14.358a31.81 31.81 0 0 1-5.186.409zm-74.812-71.5c1.612 16.388 6.871 25.239 22.663 42.521 14.055 15.383 39.22 29.549 57.017 26.6 7.8-1.287 13.414-5.725 16.685-13.188a28.037 28.037 0 0 0 2.039-11.023c-.067.166-.137.329-.207.49-3.56 8.122-9.68 12.953-18.191 14.357-18.46 3.057-44.4-11.447-58.82-27.223-11.912-13.038-18.139-21.475-21.186-32.536z"/><path d="M414.512 793.9c0-6.215-.515-15.123-1.333-25.347.036 1.355.056 2.633.056 3.8 0 9.1.293 16.2 1.28 22.334-.001-.264-.003-.519-.003-.787zM474.5 668.647c-.132-6.75-.209-13.8-.209-21.113-32.461 25.892-73.037 2.706-73.037 2.706s1.059 8.165 2.547 20.422c7.366 3.738 41.757 19.129 70.699-2.015z"/><path d="M411.683 744.468c3.858 12.045 21.965 16.484 44.576 13.2 20.417-2.963 21.319-13.2 21.319-13.2s14.057 20.453 10.163 16.935c-3.915-3.539-13.448-5.213-28.827-.994-23.895 6.555-41.445 34.281-41.445 34.281s-5.434-15.573-4.4-29.388-1.386-20.834-1.386-20.834z"/></g><path d="m234.16 369.739-12.889 22c26.994 7.072 52.468 14.6 81.685 24.047a1557.73 1557.73 0 0 1 75.938 26.743l8.621-97.467-96.783-61.111z" fill="url(#w)"/><path d="M186.78 447.856c3.018-6.289-10.858-19.221-30.993-28.884-19.946-9.573-38.543-12.341-41.824-6.279l-32.508 67.469-36.739 2.244c-2.3.2-21.9 3.007-24.116 3.657-21.765 6.383-25.426 32.841-6.172 48.729 32.652 18.741 49.3 25.644 84.531 38.924 8.337 3.143 18.639 1.839 21.488-3.367l66.887-122.218z" fill="#fff"/><path d="M17.143 536.833c31.049 21.291 64.346 32.343 91.906 38.573 5.789 1.308 22.667-14.5 12.009-23.778a236.472 236.472 0 0 0-39.52-25.78c-14.87-7.7-24.989-15.275-57.822-18.442-29.987-2.892-28.669 14.276-6.573 29.427z" fill="#65c400"/><path d="M36.636 549.993a1 1 0 0 1-.812-1.581c3.212-4.5 6.559-8.984 9.951-13.33a396.89 396.89 0 0 1 16.792-20.1 1 1 0 1 1 1.49 1.334 395.363 395.363 0 0 0-16.706 19.996 396.364 396.364 0 0 0-9.9 13.262 1 1 0 0 1-.815.419zM52.5 558.3a1 1 0 0 1-.816-1.577 392.792 392.792 0 0 1 10.984-14.786 393.38 393.38 0 0 1 16.793-20.095 1 1 0 0 1 1.491 1.334 389.875 389.875 0 0 0-16.707 19.992 390.112 390.112 0 0 0-10.928 14.709 1 1 0 0 1-.817.423zm18.589 7.759a1 1 0 0 1-.814-1.581c3.2-4.484 6.548-8.968 9.948-13.326 5.351-6.858 11-13.618 16.793-20.094a1 1 0 1 1 1.49 1.334 390.337 390.337 0 0 0-16.707 19.99 402.365 402.365 0 0 0-9.9 13.258 1 1 0 0 1-.81.419zm22.447 7.241a1 1 0 0 1-.807-1.589 391.928 391.928 0 0 1 24.326-30.075 1 1 0 0 1 1.491 1.334 389.268 389.268 0 0 0-16.707 19.991c-2.54 3.255-5.061 6.6-7.5 9.929a1 1 0 0 1-.803.41z" fill="#fff"/><path d="M145.394 525.763a1 1 0 0 1-.876-1.48c3.246-5.933-7.227-18.933-24.9-30.911-16.678-11.3-32.911-15.525-37.6-12.379a1 1 0 0 1-1.113-1.662c6.085-4.075 23.58 1.369 39.836 12.384 15.935 10.8 30.011 25.353 25.537 33.529a1 1 0 0 1-.884.519z" fill="#c8ff00"/><path d="M145.678 519.144c-2.054-7.166-11.631-17.2-25.5-26.6-16.976-11.5-33.495-15.879-38.72-12.381l7.178 5.33c12.583 11.414 11.249 30.914 11.249 30.914 9.165 5.593 16.283 12.153 23.91 17.723l21.886-14.985z" fill="#c8ff00"/><path d="M132.613 549.117a1 1 0 0 1-.988-.853c-.719-4.836-4.6-10.825-9.885-15.259-1.671-1.4-2.919-2.572-4.125-3.7-5.382-5.048-9.271-8.7-43.853-24.76-17.151-7.969-48.438-13.015-65.912-7.515a1 1 0 1 1-.6-1.908c18.182-5.723 49.5-.686 67.355 7.608 34.875 16.2 38.861 19.94 44.379 25.116 1.187 1.113 2.414 2.264 4.042 3.629 5.726 4.8 9.779 11.124 10.578 16.5a1 1 0 0 1-.842 1.137 1.053 1.053 0 0 1-.149.005z" fill="#c8ff00"/><path d="M108 576.63a10.265 10.265 0 0 1-2.77-.373 1 1 0 0 1 .537-1.925c6.617 1.839 14.06-5.44 15.41-7.907L186 448.482a1 1 0 0 1-.121-1.059c1.236-2.576-1.167-6.955-6.594-12.012-5.782-5.388-14.28-10.907-23.93-15.537-20.96-10.059-37.87-11.587-40.513-6.706L82.357 480.6a1 1 0 0 1-1.188.525l-.471-.141c-17.69-1.719-40.395-2.595-59.321 5.839-15.854 7.06-19.443 18.368-19.662 26.609a1 1 0 0 1-1 .974H.689a1 1 0 0 1-.974-1.027c.236-8.816 4.042-20.9 20.847-28.387 19.36-8.628 42.411-7.744 60.349-6l32.15-66.731c3.66-6.762 22.2-4.245 43.159 5.812 9.827 4.716 18.5 10.354 24.428 15.877 5.688 5.3 8.26 10.024 7.361 13.446a1 1 0 0 1 .2 1.219l-65.284 118.772c-1.589 2.905-8.125 9.243-14.925 9.243z" fill="#c8ff00"/><path d="m171.775 426.57-17.957 32.509A14.191 14.191 0 0 0 152.5 469.5l6.322 24.394c.861 3.32 4.132 2.41 5.78-.6l28.632-48.613z" fill="#fff"/><path d="M161.024 497a2.994 2.994 0 0 1-.38-.024 3.423 3.423 0 0 1-2.787-2.832l-6.321-24.394a15.124 15.124 0 0 1 1.407-11.154l17.957-32.51a1 1 0 0 1 1.52-.281l21.461 18.112a1 1 0 0 1 .217 1.273l-28.632 48.61c-1.066 1.951-2.816 3.2-4.442 3.2zm11.037-68.88-17.368 31.443a13.14 13.14 0 0 0-1.222 9.685l6.322 24.394c.148.572.46 1.271 1.1 1.35.764.1 1.988-.621 2.838-2.178l28.216-47.914z" fill="#c8ff00"/><path d="M161.532 413.308c-21.214-10.221-41.853-13.656-45.033-7l-7.743 16.133c3.18-6.652 22.954-3.759 44.167 6.462s35.832 23.9 32.652 30.549l8.609-15.591c3.18-6.656-11.439-20.333-32.652-30.553z" fill="#c8ff00"/><path d="m357.633 99.484 125.3 23.9 7.157 62.991c-15.206 78.538-12.469 138.295-12.469 138.295s.5 86.505.757 129.757c-1.786 18.869-27.437 30.59-47.974 30.562-20.483-.029-44.594-11.693-51.076-38.756 0 0-12-120.482-107.449-141.315 11.256-14.445 34.91-55.546 44.042-62.937 5.626-4.554 15.446-34.129 24.033-64.785" fill="url(#x)"/><path d="M477.484 294.632c-6.892-30.066-45.019-43.136-73.1-50.352-38.939-10.006-67.786-10.93-88.195-2.823l-2.953-7.436c22.037-8.754 52.5-7.933 93.14 2.511 47.843 12.295 72.915 30.188 78.9 56.313z" fill="#6da2ef"/><path d="M277.289 187.169a.483.483 0 0 1-.2-.041c-.11-.047-.247-.1-.406-.16-2.534-.966-10.246-3.9-10.715-22.881a.5.5 0 0 1 .488-.512h.012a.5.5 0 0 1 .5.487c.453 18.307 7.693 21.065 10.072 21.972.174.066.325.124.446.176a.5.5 0 0 1-.2.959z" fill="#030a24"/><path d="m479.388 125.012-6.878 33.769a3.816 3.816 0 0 0 1 3.42l21.451 22.1a3.817 3.817 0 0 0 4.97.439l25.3-18.226a3.815 3.815 0 0 0 1-5.142A115.219 115.219 0 0 0 485 122.442a3.819 3.819 0 0 0-5.612 2.57z" fill="url(#y)"/><path d="M525.833 165.972a3.822 3.822 0 0 1-.6.545l-25.3 18.226a3.816 3.816 0 0 1-4.97-.439l-21.451-22.1a3.816 3.816 0 0 1-1-3.42l6.47-31.784-6.754-1.966-6.588 32.344a10.823 10.823 0 0 0 2.84 9.7l21.45 22.1a10.891 10.891 0 0 0 7.772 3.287 10.764 10.764 0 0 0 6.328-2.042l24.936-17.963q-1.516-3.323-3.133-6.488z" fill="#6da2ef"/><path d="m398.923 101.836-17.057 29.945a3.819 3.819 0 0 1-3 1.915l-30.7 2.513a3.817 3.817 0 0 1-4.03-2.942l-7.042-30.375a3.815 3.815 0 0 1 2.636-4.526 115.229 115.229 0 0 1 56.67-2.156 3.819 3.819 0 0 1 2.523 5.626z" fill="url(#z)"/><path d="M337 102.086a3.844 3.844 0 0 0 .094.806l7.043 30.375a3.816 3.816 0 0 0 4.029 2.942l30.7-2.513a3.816 3.816 0 0 0 3-1.915l16.051-28.181 6.378 2.968-16.337 28.681a10.823 10.823 0 0 1-8.526 5.432l-30.7 2.514a10.889 10.889 0 0 1-8.013-2.643 10.762 10.762 0 0 1-3.418-5.7l-6.942-29.938q3.341-1.514 6.641-2.828z" fill="#6da2ef"/><path d="M321.814 191.4c-19.119-6.488-30.119-6.824-49.239-13.311-3.264 7.272-20.954 40.722-11.048 62.864 6.3 12.469 21.488 21.642 36.02 17.872 25.011-6.489 29.556-33.1 29.51-33.458 0-11.017-9.352-11.017-5.243-33.967z" fill="url(#A)"/><path d="M321.834 209.908c-1.165-3.995-1.639-9.468-.02-18.511-19.12-6.488-30.119-6.824-49.239-13.311-1.721 3.834-7.448 14.945-11.031 27.837l6.611 10.369 18.789 8.915 18.856-2.427z" fill="#c8ff00"/><path d="M305.5 256.3a.5.5 0 0 1-.247-.934c5.422-3.09 15.13-10.144 19.216-22.663a37.656 37.656 0 0 0 1.831-12.223.5.5 0 0 1 .493-.507h.007a.5.5 0 0 1 .5.493 38.661 38.661 0 0 1-1.882 12.543c-4.192 12.839-14.125 20.06-19.674 23.222a.5.5 0 0 1-.244.069z" fill="#030a24"/><path d="M321.39 208.145c-12.945 12.211-30.517 15.37-43.218 8.415-9.2-5.037-13.109-13.882-14.472-17.531-3.82-1.592-8.553 8.348-4.317 14.375 2.25 5.36 7.185 13.131 14.962 16.72 15.272 7.048 40.525 5.883 48.975-16.324 1.21-2.348-.459-6.922-1.93-5.655z" fill="#ff0068"/><path d="M273.677 230.959a.509.509 0 0 1-.21-.045c-5.987-2.764-11.076-8.809-14.715-17.482a.5.5 0 0 1 .921-.387c3.541 8.439 8.457 14.3 14.214 16.96a.5.5 0 0 1-.21.954z" fill="#030a24"/><path d="M266.335 149.716c-1.39 34.813 8.786 38.946 11.255 40.665l15.342 4.289 12.867 1.815c10.483 2.661 21.447-.331 28.247-7.883 8.191-9.1 9.147-23.481 1.922-34.778a4.809 4.809 0 0 0-3.982-2.271 7.272 7.272 0 0 0-2.432.392c-6.083 2.108-58.075-25.869-56.423-12.09" fill="#c8ff00"/><path d="m358.931 170.022-91.828-37.996 11.116-6.767 85.116 33.608z" fill="#fff"/><path d="m277.289 208.147 29.251-70.801 6.766 11.117-24.862 64.089zm83.844-43.703 6.195-15.592-7.068-2.809c-3.9-1.551-9.842 4.173-13.264 12.784s-3.031 16.85.873 18.4l7.069 2.809z" fill="#fff"/><path d="m355.218 180.686-7.534-2.993c-4.223-1.678-4.729-10.046-1.153-19.051s9.694-14.738 13.914-13.063l7.533 2.993zm3.688-34.394c-3.573 0-8.523 5.364-11.445 12.719-3.258 8.2-2.987 16.33.592 17.752l6.605 2.624 12.021-30.255-6.6-2.624a3.153 3.153 0 0 0-1.173-.216z" fill="#352acf"/><ellipse cx="361.133" cy="164.444" fill="#352acf" rx="16.778" ry="7.606" transform="matrix(.36926021 -.92932604 .92932604 .36926021 74.961 439.334)"/><path d="M356.306 180.792a4.154 4.154 0 0 1-1.552-.291c-2.082-.827-3.325-3.31-3.5-6.994a30.074 30.074 0 0 1 2.345-12.056c3.576-9 9.693-14.746 13.913-13.064 2.081.827 3.324 3.311 3.5 6.993a30.052 30.052 0 0 1-2.344 12.057c-3.161 7.95-8.296 13.355-12.362 13.355zm9.667-31.692c-3.572 0-8.521 5.364-11.443 12.72a29.032 29.032 0 0 0-2.276 11.64c.155 3.268 1.173 5.439 2.869 6.112 3.584 1.429 9.357-4.305 12.614-12.5a29.047 29.047 0 0 0 2.275-11.64c-.154-3.267-1.173-5.438-2.868-6.111a3.135 3.135 0 0 0-1.171-.221z" fill="#352acf"/><path d="m288.75 131.36.866-.083a10.71 10.71 0 0 0-8.443-7.473c-8.969-1.17-21.3 9.145-19.462 21.986 1.984 13.846 14.2 12.037 14.2-1.508 4.564-5.859 8.271-7.062 12.839-12.922z" fill="#c8ff00"/><path d="m303.5 134.269-1.657-3.191c-1.424-5.511-4.857-7.214-7.451-7.562-11.177-1.5-21.945 10.387-19.764 25.821 2.257 15.968 18.441 15.674 16.661 4.558 4.839-6.568 7.369-13.058 12.211-19.626z" fill="#c8ff00"/><path d="m314.869 137.045-2.235-3.068c-2.336-5.509-6.234-6.774-9.041-6.756-7.951.05-13.888 5.475-15.689 13.265a25.549 25.549 0 0 0 .846 13.656c3.541 10.858 17.35 10.358 14.75-.056 4.156-7.52 7.212-9.521 11.369-17.041z" fill="#c8ff00"/><path d="M327.809 144.346a7.977 7.977 0 0 0-.209-6.085 10.115 10.115 0 0 0-7.166-6.05c-12.943-2.339-20.479 15.724-15.593 26.976 5.564 12.815 18.06 4.7 14.342-5.2-1.246-3.314 2.852-11.921 8.626-9.641zM305.8 196.485c10.483 2.661 21.447-.331 28.247-7.883 8.191-9.1 9.147-23.481 1.922-34.778a4.809 4.809 0 0 0-3.982-2.271 7.272 7.272 0 0 0-2.432.392c-6.083 2.108-9.392 12.78-7.74 26.559" fill="#c8ff00"/><path d="M321.421 173.918a.5.5 0 0 1-.5-.483c-.378-11.427 2.946-20.048 8.469-21.963a.5.5 0 1 1 .328.945c-5.1 1.768-8.162 10-7.8 20.985a.5.5 0 0 1-.484.516z" fill="#030a24"/><path d="M425.68 164.444c-2.913-1.284 3.526-7.815.613-9.1l50.9-89.252a264.519 264.519 0 0 1 40.167 43.259c-6.049 2.976-19.54 9.913-35.04 18.623" fill="#65c400"/><path d="M411.421 120.633a90.474 90.474 0 0 0-35.559-37.241 48.527 48.527 0 0 1 8.794-9.239 98.929 98.929 0 0 1 12.349-8.06l-5.266-8.145L354 86.1c10.3 7.419 52.42 33.919 67.036 74.656-.877-6.348 1.938 2.307 1.06-4.042-.535-3.874-5.132-22.693-6.467-26.369a87.31 87.31 0 0 0-4.208-9.712z" fill="#c8ff00"/><path d="M402.224 62.766c-4.337 2.129-15.015 8.765-20.356 13.9a59.073 59.073 0 0 0-6.006 6.728 89.036 89.036 0 0 1 45.171 77.363c-4.4 5.976 12.859-2.767 15.379-18.143z" fill="url(#t)"/><path d="M421.033 160.755c9.072-10.3 40.2-69.247 50.217-83.433 5.416 2.615 22.1 25.376 26.022 29.915-12.038 6.641-54.881 30.344-69.906 53.518-2.546 3.928-3.033-2.894-6.333 0z" fill="url(#B)"/><path d="M427.742 151.553s44.251-77.387 47.048-79.64c-15.841 3.364-40.638-3.365-56.479 0-1.4 2.035-5.043 10.381-7.493 16.14-1.253 2.944-1.8 3.606-.158 6.353 3.189 5.339 9.568 21.794 17.082 57.147z" fill="#ff4a8b"/><path d="M409.827 90.3a4.537 4.537 0 0 0 .555 3.778c2.133 4.673 14.211-2.069 20.891-5.06A55.9 55.9 0 0 0 448.749 76.7l-19.57 1.229c-2.5.532-10.948-3.237-13.449-2.706-1.498 3.642-3.798 10.054-5.903 15.077z" fill="#ff0068"/><path d="M450.4 1.558c-14.66 4.319-45.7 21.3-53.052 25.534a2.91 2.91 0 0 0 .6 5.3c1.852.571 3.686 1.142 5.29 1.721C387.724 44.3 380.2 61.07 387.744 74.2c6.209 10.8 20.676 16.206 34.306 11.643l45.5-15.581c15.317-7.409 34.121-25.107 28.779-44.863-5.237-19.372-26.81-29.491-45.929-23.841z" fill="#ff4a8b"/><path d="M496.329 25.4C491.092 6.027 469.519-4.092 450.4 1.558c-.351.1-.72.221-1.089.338 1.953 8.3 22.486 12.285 25.368 24.564 1.986 8.465 1.629 17.412-3.642 26.607-.033 6.377-10.563 3.01-10.6 9.387.13 1.535 6.431 8.408 7.5 8.043 15.314-7.409 33.734-25.342 28.392-45.097z" fill="#352acf"/><ellipse cx="445.159" cy="39.686" fill="#ff0068" rx="3.736" ry="7.606" transform="matrix(.36926021 -.92932604 .92932604 .36926021 243.901 438.731)"/><ellipse cx="436.337" cy="21.755" rx="4.716" ry="2.983" transform="matrix(.7422683 -.67010281 .67010281 .7422683 97.879 297.997)"/><path d="M433.509 58.553a13.014 13.014 0 0 0-7.079-10.41c-5.578-2.821-13.114-1.011-17.7 4.788-1.525 2.754 7.235 2.738 14.766 4.325 5.266 1.11 9.39 3.144 10.013 1.297z" fill="#fff"/><path d="M451.259 21.224a1 1 0 0 1-1-.985 9.53 9.53 0 0 0-4.544-8.013 1 1 0 1 1 1.049-1.7 11.534 11.534 0 0 1 5.5 9.686 1 1 0 0 1-.985 1.015z"/><path d="M479.467 49.264c4.93-5.53 15.053-21.547 10.815-35.768.081-.806.934-1.7 2.712-1l6.474 8.3 2.308 12.813-14.3 19.457z" fill="#c8ff00"/><path d="M481.061 52.081c1.841-.964 19.99-23.2 11.933-39.584 2.887 1.091 11.4 11.185 10.952 16.958-.641 10.778-4.409 23.612-8.835 29.234-5.623-3.719-8.428-2.889-14.05-6.608zm-68.452 15.113a62.359 62.359 0 0 0 6.749 2.586c2.323.763 4.676 1.434 7.039 2.024a84.7 84.7 0 0 0 14.255 2.344 47.052 47.052 0 0 0 13.725-.846 22.129 22.129 0 0 0 10.723-5.614l7.008 8.169a29.537 29.537 0 0 1-7.95 4.3 35.67 35.67 0 0 1-8.39 1.872A54.928 54.928 0 0 1 439.7 81a90.645 90.645 0 0 1-14.827-4.439q-3.571-1.4-7.023-3.038a64.728 64.728 0 0 1-6.81-3.685z" fill="#65c400"/><ellipse cx="478.653" cy="62.031" fill="#c8ff00" rx="22.292" ry="18.408" transform="matrix(.84208547 -.5393441 .5393441 .84208547 42.131 267.957)"/><ellipse cx="480.405" cy="64.766" fill="#65c400" rx="17.677" ry="12.723" transform="matrix(.84208547 -.5393441 .5393441 .84208547 40.933 269.333)"/><path d="M475.654 79.594c-4.5 0-8.426-1.7-10.556-5.024-3-4.687-1.633-11.5 3.407-16.961a.5.5 0 0 1 .734.678c-4.726 5.119-6.051 11.446-3.3 15.744 3.634 5.675 13.082 6.136 21.058 1.028a21.289 21.289 0 0 0 8.121-9.165.5.5 0 1 1 .918.4 23.465 23.465 0 0 1-20.383 13.3z" fill="#030a24"/><circle cx="411.826" cy="68.517" fill="#030a24" r="6.486"/><path d="m441.302 218.641-59.311-15.577-13.799-23.525 3.551-13.521 23.578-13.709 59.31 15.576 13.799 23.526-3.55 13.52z" fill="#6da2ef"/><path d="m441.521 220.249-60.511-15.892-14.427-24.6 3.867-14.726L395.1 150.7l60.51 15.891 14.428 24.6-3.868 14.726zm-58.55-18.478 58.113 15.261 22.5-13.084 3.234-12.316-13.17-22.454-58.108-15.261L373.036 167l-3.236 12.318z" fill="#fff"/><path d="m397.485 144.067 59.31 15.576-19.762 75.247-59.31-15.576z" fill="#6da2ef"/><path d="m437.748 236.111-.967-.255-60.278-15.83.254-.967 19.762-75.247 1.934.508-19.507 74.28 57.376 15.067 19.508-74.279 1.933.508z" fill="#fff"/><path d="M303.6 159.567a.5.5 0 0 1-.5-.441c-1.274-10.657 1.563-17.376 4.167-21.136a17.664 17.664 0 0 1 6.1-5.71.5.5 0 0 1 .436.9c-.121.059-12.064 6.122-9.709 25.827a.5.5 0 0 1-.436.556.417.417 0 0 1-.058.004zm-14.667-5.333a.5.5 0 0 1-.5-.441c-1.274-10.657 1.563-17.376 4.167-21.136a17.664 17.664 0 0 1 6.1-5.71.5.5 0 0 1 .436.9c-.121.059-12.064 6.122-9.709 25.827a.5.5 0 0 1-.436.556.417.417 0 0 1-.058.004zm-14.275-2.134a.5.5 0 0 1-.5-.44c-1.275-10.657 1.562-17.377 4.167-21.137a17.691 17.691 0 0 1 6.1-5.71.5.5 0 0 1 .437.9c-.121.059-12.065 6.123-9.709 25.828a.5.5 0 0 1-.437.555.4.4 0 0 1-.058.004z" fill="#030a24"/></svg></g><g transform="translate(170.0 162.0) rotate(0.0 185.5 242.5) scale(0.9747894743756486 0.9785643955902055)"><svg width="380.595" height="495.624" viewBox="0 0 380.595 495.624"><linearGradient id="C" gradientUnits="userSpaceOnUse" x1="-58.464" x2="484.203" y1="575.643" y2="304.31"><stop offset=".44" stop-color="#c8ff00"/><stop offset=".577" stop-color="#65c400"/></linearGradient><path d="m224.993 19.056.404-.914 113.31 50.065-.404.914z" fill="#fff"/><path d="m315.834 118.68 22.212-50.22.914.405-22.212 50.22z" fill="#fff"/><path d="M363.381 69.048h-1a23.9 23.9 0 0 0-23.875-23.875v-1a24.9 24.9 0 0 1 24.875 24.875zM380.6 116.9h-1a17.128 17.128 0 0 0-17.108-17.109v-1A18.129 18.129 0 0 1 380.6 116.9z" fill="#ff4a8b"/><path d="M364.22 140.473a1 1 0 0 1-.957-1.288c4.053-13.453 3.733-19.636-1.107-21.339-4.545-1.6-6.948 1.749-9.732 5.626-2.859 3.979-6.093 8.49-12.068 5.838-6.349-2.821-3.224-12.558.395-23.832 4.567-14.229 9.743-30.357-2.654-35.9-12.709-5.683-23.692 4.933-34.317 15.2-7.2 6.954-13.993 13.521-20.951 14.462-6.848.932-11.461-3.234-16.8-8.049-7.713-6.949-17.313-15.6-38.144-11.219a1 1 0 1 1-.412-1.957c21.827-4.586 31.845 4.437 39.9 11.69 5.179 4.666 9.27 8.355 15.2 7.552 6.308-.852 12.876-7.2 19.829-13.917 10.585-10.228 22.582-21.819 36.524-15.588 14.032 6.276 8.326 24.054 3.741 38.338-3.186 9.926-6.195 19.3-1.486 21.393 4.179 1.857 6.428-.717 9.63-5.177 2.84-3.957 6.057-8.445 12.021-6.346 7.573 2.665 5.609 13.015 2.357 23.8a1 1 0 0 1-.969.713z" fill="#c8ff00"/><circle cx="362.488" cy="116.902" fill="#ff4a8b" r="5.171"/><path d="M318.172 207.583c.289.707.581 1.413.861 2.124l36.731-18.484 14.263-32.242-25.369-11.269z" fill="#6da2ef"/><path d="M337.574 144.566 214.489 89.9l-4.882 10.214a195.884 195.884 0 0 1 31.264 15.8 193.743 193.743 0 0 1 73.08 82.056z" fill="#c8ff00"/><path d="m324.43 138.728-19.4-8.618-13.736 31.052a193.621 193.621 0 0 1 14.088 20.63z" fill="#65c400"/><path d="M157.97 129.907c21.808-10.992 30.069-29.892 58.906-16.255l8.32 4.228V0h-119.19v132a152.845 152.845 0 0 1 51.964-2.093z" fill="#6da2ef"/><circle cx="137.898" cy="281.194" fill="#ff4a8b" r="137.379"/><path d="M137.636 419.124a136.98 136.98 0 0 1-72.646-20.9C.463 358.018-19.329 272.814 20.871 208.285a137.881 137.881 0 0 1 189.934-44.118c64.529 40.2 84.321 125.407 44.12 189.935a136.979 136.979 0 0 1-85.831 61.4 138.971 138.971 0 0 1-31.458 3.622zm.522-274.86a137.915 137.915 0 0 0-31.23 3.6 135.981 135.981 0 0 0-85.207 60.951c-39.91 64.06-20.262 148.646 43.8 188.555a136.875 136.875 0 0 0 188.556-43.8c39.91-64.06 20.262-148.646-43.8-188.556a135.993 135.993 0 0 0-72.119-20.75z" fill="#fff"/><path d="m89.336 225.586 119.882 74.686L186.46 336.8 66.579 262.114z" fill="#fff"/><path d="m322.443 366.623-30.907-14.307a171.1 171.1 0 0 1-9.951 18.4 168.488 168.488 0 0 1-65.74 60.777l-1.591-3.073-6.124-11.827-.006.013v-.008a153.234 153.234 0 0 1-79.428 16.864l-.74 12.235.382.06q4.785.274 9.566.269a165.427 165.427 0 0 0 33.538-3.483l.914 4.406 6.93 33.343a204.659 204.659 0 0 0 25.526-7.073L209.956 488a218.172 218.172 0 0 0 84.581-53.7l-11.2-10.951a204.727 204.727 0 0 0 39.11-56.733z" fill="url(#C)"/><path d="M310.49 388.72a204.032 204.032 0 0 1-27.157 34.635l11.213 10.961a220.758 220.758 0 0 0 42.115-61.111l-14.218-6.582a205.435 205.435 0 0 1-11.953 22.097zm-139.06 53.813 11.034 53.091a220.212 220.212 0 0 0 27.492-7.618l-17.84-51.2a165.923 165.923 0 0 1-20.686 5.727z" fill="#ff4a8b"/><path d="M166.639 131.385 172.8 99.3a184.66 184.66 0 0 0-44.623-3.029l.22 32.646a164.586 164.586 0 0 1 38.242 2.468z" fill="#c8ff00"/><path d="m291.271 177.361-13.158 8.908a169.929 169.929 0 0 1 27.576 117.7l15.746 2.138a185.87 185.87 0 0 0-30.164-128.746z" fill="#65c400"/><path d="M161.697 0h7.656v51.826h-7.656z" fill="#030a24"/><path d="M149.474 0h12.223v51.826h-12.223z" fill="#c8ff00"/><path d="M128.173 0h21.301v51.826h-21.301z" fill="#ff4a8b"/><path d="M172.8 99.294a183.86 183.86 0 0 0-13.144-2.009c-1.038 8.573-2.394 19.778-3.923 32.435 3.645.427 7.284.97 10.91 1.665 1.9.364 3.8.774 5.692 1.213l7.3-31.849a190.52 190.52 0 0 0-6.835-1.455z" fill="#030a24"/><path d="M218.542 151.75a151.963 151.963 0 0 1 45.671 43.929l27.058-18.318A185.667 185.667 0 0 0 172.8 99.3l-6.157 32.09a152.138 152.138 0 0 1 51.899 20.36z" fill="#ff4a8b"/><path d="m347.842 343.643-47.685-14.185a168.76 168.76 0 0 1-12.548 30.687l44 23.2a218.371 218.371 0 0 0 16.233-39.702z" fill="#c8ff00"/><path d="M332.9 339.2a202.782 202.782 0 0 1-15.081 36.879l13.788 7.271a218.371 218.371 0 0 0 16.236-39.705z" fill="#ff0068"/><path d="m226.282 79.45.406-.914 149.615 66.457-.406.914z" fill="#fff"/><circle cx="338.506" cy="69.048" fill="#ff4a8b" r="7.159"/><path d="M116.388 432.275a151.441 151.441 0 0 1-32.244-8.265l-4.327 11.5a163.647 163.647 0 0 0 34.839 8.93z" fill="#65c400"/></svg></g><g transform="translate(94.0 155.0) rotate(0.0 81.5 124.0) scale(0.9735295522958575 0.9763933290288036)"><svg width="167.432" height="253.996" viewBox="0 0 167.432 253.996"><path d="M111.347 9.973 5.767 172.167l161.665.993V9.508z" fill="#fff"/><path d="M147.432 71.167v95.52H23.153l102.06-155.346L108.553.275.598 164.291l14.697 22.396h132.137v66.309h20V71.167z" fill="#ff0068"/><path d="M166.932 253.996h-20.5v-66.309H99.556v-1h47.876v66.309h19.5zM14.876 186.961 0 164.291l.18-.275L108.135 0l.836.549L1.197 164.291l14.515 22.121z"/><circle cx="112.258" cy="136.437" fill="#ff0068" r="9.278"/><path d="m119.606 63.35-3.644 56.836h-7.409l-3.644-56.836z" fill="#ff0068"/><path d="M112.257 146.214a9.778 9.778 0 0 1 0-19.555v1a8.778 8.778 0 0 0 0 17.555zm-7.847-82.832.998-.064 3.643 56.837-.998.064z"/></svg></g><g transform="translate(428.0 403.0) rotate(0.0 145.0 226.0) scale(0.9783910527825105 0.9773606936666162)"><svg width="296.405" height="462.47" viewBox="0 0 296.405 462.47"><circle cx="182.447" cy="243.435" fill="#ff0068" r="17.057"/><path d="m195.957 109.067-6.698 104.492h-13.623l-6.698-104.492z" fill="#ff0068"/><path d="M182.447 260.992a17.557 17.557 0 0 1 0-35.114.5.5 0 0 1 0 1 16.557 16.557 0 0 0 0 33.114.5.5 0 0 1 0 1zm6.812-46.933h-13.623a.5.5 0 0 1-.5-.468l-6.7-104.492a.5.5 0 0 1 .467-.531.5.5 0 0 1 .531.466l6.666 104.025h13.155a.5.5 0 0 1 0 1z"/><path d="M296.4 273.771c-6.453-.007-14.527-.013-23.788-.019V116.025h-31.854v157.711c-80.1-.036-197.976-.056-197.976-.056l169.89-255.735L186.224.5.5 279.755l13.412 25.784h226.846V461.97h31.859V305.539H296.4z" fill="#ff0068"/><path d="M240.758 462.47a.5.5 0 0 1-.5-.5V306.039H13.912a.5.5 0 0 1-.443-.269L.057 279.986a.5.5 0 0 1 .027-.508L185.808.223a.5.5 0 1 1 .832.555L1.08 279.786l13.136 25.253h226.542a.5.5 0 0 1 .5.5V461.97a.5.5 0 0 1-.5.5z"/></svg></g></svg>